<?xml version="1.0" encoding="utf-8"?>
<!-- Generator: Adobe Illustrator 24.1.2, SVG Export Plug-In . SVG Version: 6.00 Build 0)  -->
<svg version="1.1" id="Layer_1" xmlns="http://www.w3.org/2000/svg" xmlns:xlink="http://www.w3.org/1999/xlink" x="0px" y="0px"
	 viewBox="0 0 100.3 100.3" style="enable-background:new 0 0 100.3 100.3;" xml:space="preserve">
<style type="text/css">
	.st0{fill:#F05F5F;}
</style>
<path class="st0" d="M96.4,8.9H3.6c-1,0-1.8,0.8-1.8,1.8v57.7c0,1,0.8,1.8,1.8,1.8h33.1l-1.6,17.3c0,0.1,0,0.1,0,0.2h-8.7
	c-1,0-1.8,0.8-1.8,1.8c0,1,0.8,1.8,1.8,1.8h49c1,0,1.8-0.8,1.8-1.8c0-1-0.8-1.8-1.8-1.8h-9.6c0-0.1,0-0.1,0-0.2l-1.6-17.3h32.3
	c1,0,1.8-0.8,1.8-1.8V10.6C98.1,9.7,97.3,8.9,96.4,8.9z M62.2,87.6H38.6l1.7-17.5h20.2L62.2,87.6z M94.6,66.6H5.4V12.4h89.2V66.6z"
	/>
</svg>
