<?xml version="1.0" encoding="utf-8"?>
<!-- Generator: Adobe Illustrator 24.1.2, SVG Export Plug-In . SVG Version: 6.00 Build 0)  -->
<svg version="1.1" id="Camada_1" xmlns="http://www.w3.org/2000/svg" xmlns:xlink="http://www.w3.org/1999/xlink" x="0px" y="0px"
	 viewBox="0 0 24 24" style="enable-background:new 0 0 24 24;" xml:space="preserve">
<style type="text/css">
	.st0{fill:none;stroke:#F05F5F;stroke-linecap:round;stroke-linejoin:round;}
	.st1{fill:#F05F5F;}
</style>
<line class="st0" x1="18.5" y1="19.5" x2="5.5" y2="19.5"/>
<path class="st1" d="M12,20.8c-0.4,0-0.8,0.3-0.8,0.8s0.3,0.8,0.8,0.8s0.8-0.3,0.8-0.8C12.8,21.1,12.4,20.8,12,20.8
	C12,20.8,12,20.8,12,20.8z"/>
<path class="st0" d="M7.5,0.5h9c1.1,0,2,0.9,2,2v19c0,1.1-0.9,2-2,2h-9c-1.1,0-2-0.9-2-2v-19C5.5,1.4,6.4,0.5,7.5,0.5z"/>
</svg>
