<?xml version="1.0" encoding="utf-8"?>
<!-- Generator: Adobe Illustrator 24.1.2, SVG Export Plug-In . SVG Version: 6.00 Build 0)  -->
<svg version="1.1" id="Layer_1" xmlns="http://www.w3.org/2000/svg" xmlns:xlink="http://www.w3.org/1999/xlink" x="0px" y="0px"
	 viewBox="0 0 100.3 100.3" style="enable-background:new 0 0 100.3 100.3;" xml:space="preserve">
<style type="text/css">
	.st0{fill:#F05F5F;stroke:#F05F5F;stroke-width:2;stroke-miterlimit:10;}
</style>
<path class="st0" d="M89.5,23.9L76.4,10.8c-0.4-0.4-0.8-0.5-1.3-0.5h-63c-1,0-1.8,0.8-1.8,1.8v76.1c0,1,0.8,1.8,1.8,1.8h76.1
	c1,0,1.8-0.8,1.8-1.8v-63C90,24.7,89.8,24.2,89.5,23.9z M31.7,13.9h36.9v25H31.7V13.9z M75.7,86.4H24.6V55.5h51.2V86.4z M86.4,86.4
	h-7.1V53.7c0-1-0.8-1.8-1.8-1.8H22.8c-1,0-1.8,0.8-1.8,1.8v32.7h-7.1V13.9h14.3v26.8c0,1,0.8,1.8,1.8,1.8h40.4c1,0,1.8-0.8,1.8-1.8
	V13.9h2.3l12,12V86.4z"/>
</svg>
