<?xml version="1.0" encoding="utf-8"?>
<!-- Generator: Adobe Illustrator 24.1.2, SVG Export Plug-In . SVG Version: 6.00 Build 0)  -->
<svg version="1.1" id="Layer_1" xmlns="http://www.w3.org/2000/svg" xmlns:xlink="http://www.w3.org/1999/xlink" x="0px" y="0px"
	 viewBox="0 0 100.5 100.5" style="enable-background:new 0 0 100.5 100.5;" xml:space="preserve">
<style type="text/css">
	.st0{fill:#F05F5F;}
</style>
<g>
	<path class="st0" d="M55.7,50c-0.7-0.4-1.6-0.1-2,0.7l-10,19.6c-0.4,0.7-0.1,1.6,0.7,2c0.2,0.1,0.5,0.2,0.7,0.2
		c0.5,0,1.1-0.3,1.3-0.8l10-19.6C56.7,51.3,56.4,50.4,55.7,50z"/>
	<path class="st0" d="M66.2,49.2c-0.6-0.6-1.5-0.6-2.1,0s-0.6,1.5,0,2.1l9.6,9.6l-9.6,9.6c-0.6,0.6-0.6,1.5,0,2.1
		c0.3,0.3,0.7,0.4,1.1,0.4s0.8-0.1,1.1-0.4L76.9,62c0.3-0.3,0.4-0.7,0.4-1.1s-0.2-0.8-0.4-1.1L66.2,49.2z"/>
	<path class="st0" d="M35.9,49.2c-0.6-0.6-1.5-0.6-2.1,0L23.1,59.9c-0.3,0.3-0.4,0.7-0.4,1.1s0.2,0.8,0.4,1.1l10.6,10.6
		c0.3,0.3,0.7,0.4,1.1,0.4s0.8-0.1,1.1-0.4c0.6-0.6,0.6-1.5,0-2.1l-9.6-9.6l9.6-9.6C36.5,50.8,36.5,49.8,35.9,49.2z"/>
	<path class="st0" d="M95.9,8.4H4.1c-0.8,0-1.5,0.7-1.5,1.5v80.2c0,0.8,0.7,1.5,1.5,1.5h91.7c0.8,0,1.5-0.7,1.5-1.5V9.9
		C97.4,9.1,96.7,8.4,95.9,8.4z M94.4,11.4v18.9H5.6V11.4H94.4z M5.6,88.6V33.3h88.7v55.3C94.4,88.6,5.6,88.6,5.6,88.6z"/>
	<path class="st0" d="M13.6,21.9h6.9c0.8,0,1.5-0.7,1.5-1.5s-0.7-1.5-1.5-1.5h-6.9c-0.8,0-1.5,0.7-1.5,1.5S12.7,21.9,13.6,21.9z"/>
	<path class="st0" d="M28.3,21.9h6.9c0.8,0,1.5-0.7,1.5-1.5s-0.7-1.5-1.5-1.5h-6.9c-0.8,0-1.5,0.7-1.5,1.5S27.5,21.9,28.3,21.9z"/>
</g>
</svg>
